<svg width="640" height="640" viewBox="0 0 640 640" fill="none" xmlns="http://www.w3.org/2000/svg">
<g clip-path="url(#clip0_479_48)">
<path d="M320 640C496.731 640 640 496.731 640 320C640 143.269 496.731 0 320 0C143.269 0 0 143.269 0 320C0 496.731 143.269 640 320 640Z" fill="white"/>
<path d="M158.671 183.97C158.671 170.677 158.671 157.384 158.671 144.091C146.586 144.091 133.293 144.091 121.208 145.299C121.208 261.311 121.208 378.532 121.208 494.544C134.502 494.544 147.795 494.544 162.296 494.544C162.296 451.039 162.296 407.535 162.296 364.03C179.215 384.574 203.384 397.867 229.97 403.909C260.181 411.16 290.393 405.118 318.187 391.825C307.311 383.366 296.435 374.906 285.559 365.239C274.683 364.03 263.807 370.073 251.722 368.864C222.719 370.073 191.299 355.571 176.798 330.193C162.296 308.441 161.088 280.647 163.505 255.269C165.921 228.683 181.631 202.097 204.592 188.804C236.012 171.885 277.1 173.094 306.103 194.846C344.774 225.057 352.024 283.063 329.064 325.36C338.731 335.027 350.816 342.278 362.9 348.32C396.737 293.94 389.487 214.181 339.94 170.677C289.184 122.338 199.758 128.381 158.671 183.97ZM329.064 150.133C341.148 158.592 352.024 168.26 361.692 180.344C394.32 171.885 431.783 177.927 455.952 202.097C476.496 223.849 482.538 256.477 478.912 285.48C476.496 307.233 465.619 328.985 446.284 342.278C405.196 372.489 338.731 362.822 312.145 318.109C294.018 286.689 295.227 246.81 314.562 216.598C306.103 205.722 295.227 197.263 281.934 191.221C245.68 244.393 251.722 326.568 302.477 368.864C352.024 412.369 436.616 406.326 478.912 355.571C478.912 382.157 480.121 409.952 463.203 432.912C445.076 458.29 411.239 465.541 382.236 463.124C350.816 460.707 321.813 443.789 298.852 423.245C290.393 432.912 283.142 442.58 274.683 452.248C304.894 481.251 345.982 500.586 388.278 501.795C423.323 503.003 460.786 493.335 486.163 467.958C510.332 444.997 520 409.952 520 377.323C520 299.982 520 222.64 520 145.299C506.707 145.299 494.622 145.299 481.329 145.299C481.329 158.592 481.329 173.094 481.329 186.387C447.493 138.048 379.819 125.964 329.064 150.133Z" fill="#333333"/>
<path d="M158.671 183.968C199.758 128.379 287.976 123.545 338.731 169.467C388.278 212.971 395.529 292.73 361.692 347.11C349.607 342.276 337.523 333.817 327.855 324.149C350.816 281.853 343.565 223.847 304.894 193.636C277.1 171.884 234.804 169.467 203.384 187.594C179.215 200.887 164.713 227.473 162.296 254.059C159.879 279.436 162.296 307.231 175.589 328.983C191.299 354.361 221.511 368.862 250.514 367.654C261.39 367.654 272.266 362.82 284.35 364.029C295.227 372.488 304.894 382.156 316.979 390.615C290.393 403.908 258.973 409.95 228.761 402.699C202.175 397.865 178.006 383.364 161.088 362.82C161.088 406.325 161.088 449.829 161.088 493.334C147.795 493.334 134.502 493.334 120 493.334C120 377.322 120 260.101 120 144.089C132.085 142.881 145.378 142.881 157.462 142.881C158.671 156.174 158.671 170.675 158.671 183.968Z" fill="#333333"/>
<path d="M329.063 150.13C379.818 125.961 447.492 138.045 481.329 185.175C481.329 171.882 481.329 157.38 481.329 144.087C494.622 144.087 506.707 144.087 520 144.087C520 221.429 520 298.77 520 376.112C520 408.74 510.332 443.785 486.163 466.746C460.785 492.124 423.323 501.791 388.278 500.583C345.981 499.374 304.894 481.248 274.682 451.036C283.142 441.368 290.392 431.701 298.852 422.033C321.812 442.577 350.815 459.495 382.235 461.912C411.238 464.329 446.284 457.078 463.202 431.701C478.912 409.948 478.912 380.945 478.912 354.359C436.616 405.115 352.024 411.157 302.477 367.652C251.722 325.356 245.679 243.181 281.933 190.009C294.018 196.051 304.894 204.51 314.562 215.387C296.435 245.598 294.018 286.686 312.145 316.897C337.522 362.819 405.196 372.486 446.284 341.066C464.411 327.773 475.287 306.021 478.912 284.269C482.537 255.266 477.704 222.637 455.951 200.885C431.782 176.716 394.32 170.674 361.691 179.133C352.024 168.257 341.148 158.589 329.063 150.13Z" fill="#E84A1D"/>
</g>
<defs>
<clipPath id="clip0_479_48">
<rect width="640" height="640" fill="white"/>
</clipPath>
</defs>
</svg>
